<svg width="32" height="32" viewBox="0 0 32 32" fill="none" xmlns="http://www.w3.org/2000/svg">
<path opacity="0.498605" d="M24.8619 12.1235C24.8619 11.9265 24.8582 11.7318 24.8495 11.5384C25.6915 10.911 26.4221 10.1257 27 9.22704C26.2153 9.58009 25.3802 9.80852 24.525 9.90407C25.4151 9.35641 26.0977 8.48052 26.4203 7.42942C25.5869 7.93479 24.665 8.29608 23.6848 8.48434C22.8995 7.59082 21.7787 7.02172 20.5398 7.00057C18.1603 6.96123 16.2314 8.97178 16.2314 11.4907C16.2314 11.8487 16.2688 12.1959 16.3432 12.5312C12.76 12.3007 9.58479 10.4358 7.46085 7.62445C7.09025 8.29801 6.87763 9.08519 6.87763 9.92878C6.87763 11.5243 7.63828 12.9424 8.79402 13.7792C8.08649 13.7472 7.4237 13.533 6.84237 13.1817V13.2403C6.84237 15.4703 8.32796 17.3387 10.2992 17.7746C9.9378 17.8774 9.55664 17.9308 9.16462 17.9289C8.89226 17.9275 8.62077 17.8978 8.35456 17.8402C8.90229 19.6677 10.4942 21.0028 12.3788 21.0472C10.9038 22.2701 9.04579 23.0005 7.0285 22.9954C6.68068 22.9954 6.33697 22.9721 6 22.9298C7.90746 24.238 10.1717 25 12.6057 25C20.5289 25.0019 24.8619 18.1063 24.8619 12.1235Z" fill="white"/>
</svg>
