<svg width="37" height="28" viewBox="0 0 37 28" fill="none" xmlns="http://www.w3.org/2000/svg">
<path fill-rule="evenodd" clip-rule="evenodd" d="M6.1628 0.734375H30.1734C31.7701 0.734375 33.2947 1.37065 34.4232 2.48715C35.5397 3.61564 36.176 5.14031 36.176 6.73702V21.1434C36.176 22.7401 35.5397 24.2647 34.4232 25.3932C33.2947 26.5097 31.7701 27.146 30.1734 27.146H6.1628C4.56609 27.146 3.04142 26.5097 1.91293 25.3932C0.796436 24.2647 0.160156 22.7401 0.160156 21.1434V6.73702C0.160156 5.14031 0.796436 3.61564 1.91293 2.48715C3.04142 1.37065 4.56609 0.734375 6.1628 0.734375ZM6.1628 3.13543H30.1734C31.1338 3.13543 32.0462 3.5196 32.7185 4.1919C33.3908 4.86419 33.7749 5.77659 33.7749 6.73702V21.1434C33.7749 22.1038 33.3908 23.0162 32.7185 23.6885C32.0462 24.3608 31.1338 24.7449 30.1734 24.7449H6.1628C5.20237 24.7449 4.28997 24.3608 3.61768 23.6885C2.94538 23.0162 2.56121 22.1038 2.56121 21.1434V6.73702C2.56121 5.77659 2.94538 4.86419 3.61768 4.1919C4.28997 3.5196 5.20237 3.13543 6.1628 3.13543Z" fill="black"/>
<path d="M34.4353 5.66855C34.7234 5.52448 35.0475 5.50047 35.3597 5.59651C35.6598 5.70456 35.9119 5.92066 36.044 6.19678C36.188 6.48491 36.2121 6.80905 36.116 7.12118C36.008 7.42132 35.7919 7.67343 35.5157 7.80549L20.8573 15.1407C20.8453 15.1407 20.8333 15.1527 20.8213 15.1527C19.9929 15.5369 19.0805 15.729 18.1681 15.717C17.2557 15.729 16.3433 15.5369 15.5149 15.1527C15.5029 15.1527 15.4909 15.1407 15.4789 15.1407L0.820481 7.80549C0.544359 7.67343 0.328264 7.42132 0.220217 7.12118C0.124174 6.80905 0.148185 6.48491 0.292248 6.19678C0.424306 5.92066 0.676417 5.70456 0.976549 5.59651C1.28869 5.50047 1.61283 5.52448 1.90096 5.66855L16.5474 12.9798C17.0516 13.2199 17.6039 13.3279 18.1681 13.3159C18.7324 13.3279 19.2846 13.2199 19.7888 12.9798L34.4353 5.66855ZM12.1655 19.9428C12.4896 19.9428 12.7897 20.0749 13.0178 20.291C13.2339 20.5191 13.366 20.8192 13.366 21.1434C13.366 21.4675 13.2339 21.7676 13.0178 21.9957C12.7897 22.2118 12.4896 22.3439 12.1655 22.3439H6.16283C5.83869 22.3439 5.53856 22.2118 5.31046 21.9957C5.09436 21.7676 4.9623 21.4675 4.9623 21.1434C4.9623 20.8192 5.09436 20.5191 5.31046 20.291C5.53856 20.0749 5.83869 19.9428 6.16283 19.9428H12.1655Z" fill="black"/>
</svg>
