<svg width="101" height="101" viewBox="0 0 101 101" fill="none" xmlns="http://www.w3.org/2000/svg">
<circle cx="50.0547" cy="51" r="25" fill="url(#paint0_linear_1036_47235)"/>
<path d="M41.7017 64V60.5739L50.7912 51.6634C51.6605 50.7855 52.3849 50.0057 52.9645 49.3239C53.544 48.642 53.9787 47.9815 54.2685 47.3423C54.5582 46.7031 54.7031 46.0213 54.7031 45.2969C54.7031 44.4702 54.5156 43.7628 54.1406 43.1747C53.7656 42.5781 53.25 42.1179 52.5938 41.794C51.9375 41.4702 51.1918 41.3082 50.3565 41.3082C49.4957 41.3082 48.7415 41.4872 48.0938 41.8452C47.446 42.1946 46.9432 42.6932 46.5852 43.3409C46.2358 43.9886 46.0611 44.7599 46.0611 45.6548H41.5483C41.5483 43.9929 41.9276 42.5483 42.6861 41.321C43.4446 40.0937 44.4886 39.1435 45.8182 38.4702C47.1563 37.7969 48.6903 37.4602 50.4205 37.4602C52.1761 37.4602 53.7188 37.7884 55.0483 38.4446C56.3778 39.1009 57.4091 40 58.142 41.142C58.8835 42.2841 59.2543 43.5881 59.2543 45.054C59.2543 46.0341 59.0668 46.9972 58.6918 47.9432C58.3168 48.8892 57.6563 49.9375 56.7102 51.0881C55.7727 52.2386 54.456 53.6321 52.7599 55.2685L48.2472 59.858V60.0369H59.6506V64H41.7017Z" fill="white"/>
<circle opacity="0.642067" cx="50.2207" cy="50.2207" r="36.4566" stroke="url(#paint1_linear_1036_47235)" stroke-width="27.5281"/>
<defs>
<linearGradient id="paint0_linear_1036_47235" x1="53.3764" y1="80.0628" x2="83.8381" y2="47.7698" gradientUnits="userSpaceOnUse">
<stop stop-color="#E719A3"/>
<stop offset="1" stop-color="#FF7D7D"/>
</linearGradient>
<linearGradient id="paint1_linear_1036_47235" x1="18.8097" y1="1.47895" x2="18.8097" y2="64.3008" gradientUnits="userSpaceOnUse">
<stop stop-color="#FF63CA"/>
<stop offset="1" stop-color="white" stop-opacity="0.01"/>
<stop offset="1" stop-color="white" stop-opacity="0.01"/>
</linearGradient>
</defs>
</svg>
