<svg width="101" height="101" viewBox="0 0 101 101" fill="none" xmlns="http://www.w3.org/2000/svg">
<circle cx="50.0547" cy="51" r="25" fill="url(#paint0_linear_1036_47236)"/>
<path d="M50.0531 64.358C48.2122 64.358 46.5758 64.0426 45.144 63.4119C43.7207 62.7812 42.5957 61.9034 41.769 60.7784C40.9423 59.6534 40.5034 58.3537 40.4522 56.8793H45.2591C45.3017 57.5866 45.536 58.2045 45.9622 58.733C46.3883 59.2528 46.9551 59.6577 47.6625 59.9474C48.3699 60.2372 49.1625 60.3821 50.0403 60.3821C50.9778 60.3821 51.8088 60.2202 52.5332 59.8963C53.2576 59.5639 53.8244 59.1037 54.2335 58.5156C54.6426 57.9276 54.8429 57.25 54.8343 56.483C54.8429 55.6903 54.6383 54.9915 54.2207 54.3864C53.8031 53.7812 53.198 53.3082 52.4054 52.9673C51.6213 52.6264 50.6752 52.456 49.5673 52.456H47.2534V48.7997H49.5673C50.4792 48.7997 51.2761 48.642 51.9579 48.3267C52.6483 48.0114 53.1895 47.5682 53.5815 46.9972C53.9735 46.4176 54.1653 45.7486 54.1568 44.9901C54.1653 44.2486 53.9991 43.6051 53.6582 43.0597C53.3258 42.5057 52.8528 42.0753 52.2392 41.7685C51.6341 41.4616 50.9224 41.3082 50.1042 41.3082C49.3031 41.3082 48.5616 41.4531 47.8798 41.7429C47.198 42.0327 46.6483 42.446 46.2306 42.983C45.813 43.5114 45.5914 44.142 45.5659 44.875H41.002C41.036 43.4091 41.4579 42.1222 42.2676 41.0142C43.0858 39.8977 44.1767 39.0284 45.5403 38.4062C46.9039 37.7756 48.4338 37.4602 50.1298 37.4602C51.877 37.4602 53.394 37.7884 54.6809 38.4446C55.9764 39.0923 56.9778 39.9659 57.6852 41.0653C58.3926 42.1648 58.7463 43.3793 58.7463 44.7088C58.7548 46.1832 58.3201 47.419 57.4423 48.4162C56.573 49.4134 55.4309 50.0653 54.0162 50.3722V50.5767C55.8571 50.8324 57.2676 51.5142 58.2477 52.6222C59.2363 53.7216 59.7264 55.0895 59.7179 56.7259C59.7179 58.1918 59.3002 59.5043 58.465 60.6634C57.6383 61.8139 56.4963 62.7173 55.0389 63.3736C53.59 64.0298 51.9281 64.358 50.0531 64.358Z" fill="white"/>
<circle opacity="0.642067" cx="50.2207" cy="50.2207" r="36.4566" stroke="url(#paint1_linear_1036_47236)" stroke-width="27.5281"/>
<defs>
<linearGradient id="paint0_linear_1036_47236" x1="53.3764" y1="80.0628" x2="83.8381" y2="47.7698" gradientUnits="userSpaceOnUse">
<stop stop-color="#E719A3"/>
<stop offset="1" stop-color="#FF7D7D"/>
</linearGradient>
<linearGradient id="paint1_linear_1036_47236" x1="18.8097" y1="1.47895" x2="18.8097" y2="64.3008" gradientUnits="userSpaceOnUse">
<stop stop-color="#FF63CA"/>
<stop offset="1" stop-color="white" stop-opacity="0.01"/>
<stop offset="1" stop-color="white" stop-opacity="0.01"/>
</linearGradient>
</defs>
</svg>
