<svg width="32" height="32" viewBox="0 0 32 32" fill="none" xmlns="http://www.w3.org/2000/svg">
<path d="M30.0012 8.43382H28.9333C28.5369 8.43382 27.9762 9.00795 27.9762 9.37551V22.6977C27.9762 23.0657 28.5369 23.5673 28.9333 23.5673H30.0012V26.7295H20.3264V23.5673H22.3514V9.56319H22.2522L17.5235 26.7295H13.8625L9.1949 9.56319H9.07677V23.5673H11.1017V26.7295H3.00195V23.5673H4.03912C4.46626 23.5673 5.02689 23.0657 5.02689 22.6977V9.37551C5.02689 9.00795 4.46626 8.43382 4.03912 8.43382H3.00195V5.27161H13.1303L16.4557 17.6946H16.5472L19.9033 5.27161H30.0012V8.43382Z" fill="#E717A7"/>
</svg>
