<svg width="38" height="28" viewBox="0 0 38 28" fill="none" xmlns="http://www.w3.org/2000/svg">
<path fill-rule="evenodd" clip-rule="evenodd" d="M8.08739 0.389648C12.4326 0.389648 16.6169 3.60831 16.6169 10.6894C16.6169 18.897 11.1451 25.4952 7.92646 27.9092L3.58126 25.4952C6.79992 22.9203 9.85765 18.5751 10.5014 14.8736C10.0186 15.1955 8.73112 15.5174 8.08739 15.5174C3.90312 15.5174 0.20166 12.7815 0.20166 7.95351C0.20166 3.44738 3.90312 0.389648 8.08739 0.389648ZM29.3306 0.389648C33.6758 0.389648 37.86 3.60831 37.86 10.6894C37.86 18.897 32.3883 25.4952 29.1696 27.9092L24.8244 25.4952C28.0431 22.9203 31.1008 18.5751 31.7446 14.8736C31.2618 15.1955 29.9743 15.5174 29.3306 15.5174C25.1463 15.5174 21.4448 12.7815 21.4448 7.95351C21.4448 3.44738 25.1463 0.389648 29.3306 0.389648Z" fill="#EB2C9B"/>
</svg>
