<svg width="32" height="32" viewBox="0 0 32 32" fill="none" xmlns="http://www.w3.org/2000/svg">
<path opacity="0.498605" fill-rule="evenodd" clip-rule="evenodd" d="M6.8 6H25.2C25.6425 6 26 6.3575 26 6.8V25.2C26 25.6425 25.6425 26 25.2 26H6.8C6.3575 26 6 25.6425 6 25.2V6.8C6 6.3575 6.3575 6 6.8 6ZM8.965 23.0425H11.9325V13.4975H8.965V23.0425ZM10.45 12.1925C9.5 12.1925 8.73 11.4225 8.73 10.4725C8.73 9.5225 9.5 8.7525 10.45 8.7525C11.3975 8.7525 12.17 9.5225 12.17 10.4725C12.1675 11.4225 11.3975 12.1925 10.45 12.1925ZM20.0775 23.0425H23.0425V17.8075C23.0425 15.2375 22.49 13.26 19.485 13.26C18.04 13.26 17.0725 14.0525 16.6775 14.8025H16.6375V13.4975H13.7925V23.0425H16.755V18.32C16.755 17.075 16.9925 15.87 18.535 15.87C20.0575 15.87 20.0775 17.2925 20.0775 18.4V23.0425Z" fill="white"/>
</svg>
