<svg width="1003" height="928" viewBox="0 0 1003 928" fill="none" xmlns="http://www.w3.org/2000/svg">
<g opacity="0.933896">
<mask id="path-1-inside-1_2567_5494" fill="white">
<path fill-rule="evenodd" clip-rule="evenodd" d="M577.957 509.297L519.315 133.171L1002.24 430.044L730.642 606.423L577.957 509.297ZM577.587 509.986L257.83 303.429L332.613 865.355L604.213 688.976L577.587 509.986Z"/>
</mask>
<path d="M519.315 133.171L520.362 131.467L516.671 129.198L517.338 133.479L519.315 133.171ZM577.957 509.297L575.981 509.606L576.12 510.499L576.884 510.985L577.957 509.297ZM1002.24 430.044L1003.33 431.721L1005.99 429.998L1003.29 428.34L1002.24 430.044ZM730.642 606.423L729.568 608.111L730.653 608.801L731.731 608.101L730.642 606.423ZM257.83 303.429L258.915 301.749L255.276 299.399L255.848 303.693L257.83 303.429ZM577.587 509.986L579.565 509.692L579.432 508.797L578.672 508.306L577.587 509.986ZM332.613 865.355L330.63 865.619L331.048 868.756L333.702 867.032L332.613 865.355ZM604.213 688.976L605.303 690.653L606.381 689.953L606.192 688.681L604.213 688.976ZM517.338 133.479L575.981 509.606L579.933 508.989L521.291 132.863L517.338 133.479ZM1003.29 428.34L520.362 131.467L518.267 134.875L1001.19 431.748L1003.29 428.34ZM731.731 608.101L1003.33 431.721L1001.15 428.367L729.553 604.746L731.731 608.101ZM576.884 510.985L729.568 608.111L731.715 604.736L579.031 507.61L576.884 510.985ZM256.745 305.109L576.501 511.666L578.672 508.306L258.915 301.749L256.745 305.109ZM334.595 865.091L259.813 303.166L255.848 303.693L330.63 865.619L334.595 865.091ZM603.124 687.298L331.524 863.678L333.702 867.032L605.303 690.653L603.124 687.298ZM575.608 510.281L602.235 689.27L606.192 688.681L579.565 509.692L575.608 510.281Z" fill="url(#paint0_linear_2567_5494)" mask="url(#path-1-inside-1_2567_5494)"/>
</g>
<g opacity="0.933896">
<mask id="path-3-inside-2_2567_5494" fill="white">
<path fill-rule="evenodd" clip-rule="evenodd" d="M524.957 571.297L466.315 195.171L949.242 492.044L677.642 668.423L524.957 571.297ZM524.587 571.986L204.83 365.429L279.613 927.355L551.213 750.976L524.587 571.986Z"/>
</mask>
<path d="M466.315 195.171L467.362 193.467L463.671 191.198L464.338 195.479L466.315 195.171ZM524.957 571.297L522.981 571.606L523.12 572.499L523.884 572.985L524.957 571.297ZM949.242 492.044L950.332 493.721L952.986 491.998L950.29 490.34L949.242 492.044ZM677.642 668.423L676.568 670.111L677.653 670.801L678.731 670.101L677.642 668.423ZM204.83 365.429L205.915 363.749L202.276 361.399L202.848 365.693L204.83 365.429ZM524.587 571.986L526.565 571.692L526.432 570.797L525.672 570.306L524.587 571.986ZM279.613 927.355L277.63 927.619L278.048 930.756L280.702 929.032L279.613 927.355ZM551.213 750.976L552.303 752.653L553.381 751.953L553.192 750.681L551.213 750.976ZM464.338 195.479L522.981 571.606L526.933 570.989L468.291 194.863L464.338 195.479ZM950.29 490.34L467.362 193.467L465.267 196.875L948.195 493.748L950.29 490.34ZM678.731 670.101L950.332 493.721L948.153 490.367L676.553 666.746L678.731 670.101ZM523.884 572.985L676.568 670.111L678.715 666.736L526.031 569.61L523.884 572.985ZM203.745 367.109L523.501 573.666L525.672 570.306L205.915 363.749L203.745 367.109ZM281.595 927.091L206.813 365.166L202.848 365.693L277.63 927.619L281.595 927.091ZM550.124 749.298L278.524 925.678L280.702 929.032L552.303 752.653L550.124 749.298ZM522.608 572.281L549.235 751.27L553.192 750.681L526.565 571.692L522.608 572.281Z" fill="url(#paint1_linear_2567_5494)" mask="url(#path-3-inside-2_2567_5494)"/>
</g>
<defs>
<linearGradient id="paint0_linear_2567_5494" x1="110.591" y1="459.757" x2="344.616" y2="831.187" gradientUnits="userSpaceOnUse">
<stop stop-color="#F3F3F3"/>
<stop offset="1" stop-color="#C2C2C2" stop-opacity="0.0837795"/>
</linearGradient>
<linearGradient id="paint1_linear_2567_5494" x1="57.5915" y1="521.757" x2="291.616" y2="893.187" gradientUnits="userSpaceOnUse">
<stop stop-color="#F3F3F3"/>
<stop offset="1" stop-color="#C2C2C2" stop-opacity="0.0837795"/>
</linearGradient>
</defs>
</svg>
